<?xml version="1.0" encoding="UTF-8"?>
<svg enable-background="new 0 0 512 512" version="1.1" viewBox="0 0 512 512" xml:space="preserve" xmlns="http://www.w3.org/2000/svg">
<path d="m496 192h-24c-4.416 0-8-3.584-8-8v-8c0-22.088-17.912-40-40-40h-384c-22.088 0-40 17.912-40 40v160c0 22.088 17.912 40 40 40h384c22.088 0 40-17.912 40-40v-8c0-4.416 3.584-8 8-8h24c8.84 0 16-7.16 16-16v-96c0-8.84-7.16-16-16-16zm-64 144c0 4.416-3.584 8-8 8h-384c-4.416 0-8-3.584-8-8v-160c0-4.416 3.584-8 8-8h384c4.416 0 8 3.584 8 8v160z" fill="#B2C4D0"/>
<path d="m40 168h384c4.416 0 8 3.584 8 8v160c0 4.416-3.584 8-8 8h-384c-4.416 0-8-3.584-8-8v-160c0-4.416 3.584-8 8-8z" fill="#ECF0F9"/>
<path d="m32 336v-160c0-4.416 3.584-8 8-8h384c0-8.84-7.16-16-16-16h-368c-13.256 0-24 10.744-24 24v144c0 8.84 7.16 16 16 16z" fill="#8FAEBF"/>
<g fill="#F6B545">
	<rect x="64" y="192" width="96" height="128"/>
	<rect x="184" y="192" width="96" height="128"/>
</g>
<g fill="#F19920">
	<path d="m264 208v88c0 4.416-3.584 8-8 8h-56c-8.84 0-16 7.16-16 16h96v-128c-8.84 0-16 7.16-16 16z"/>
	<path d="m144 208v88c0 4.416-3.584 8-8 8h-56c-8.84 0-16 7.16-16 16h96v-128c-8.84 0-16 7.16-16 16z"/>
</g>
<path d="m496 224v80h-32v-128c-8.84 0-16 7.16-16 16v144c0 13.256-10.744 24-24 24h-368c-8.84 0-16 7.16-16 16h384c22.088 0 40-17.912 40-40v-8c0-4.416 3.584-8 8-8h24c8.84 0 16-7.16 16-16v-96c-8.84 0-16 7.16-16 16z" fill="#8FAEBF"/>
</svg>
